<svg width="23" height="24" viewBox="0 0 23 24" fill="none" xmlns="http://www.w3.org/2000/svg">
<g clip-path="url(#clip0_479_11106)">
<path d="M11.7088 0.779297C8.69189 0.779297 8.31251 0.793193 7.12713 0.846001C5.94175 0.901587 5.13435 1.0878 4.42702 1.36295C3.68507 1.64202 3.01303 2.07978 2.45787 2.64561C1.89238 3.20105 1.45468 3.87302 1.17521 4.61476C0.900057 5.32071 0.712453 6.12949 0.658256 7.3107C0.605449 8.49886 0.591553 8.87685 0.591553 11.898C0.591553 14.9163 0.605449 15.2943 0.658256 16.4797C0.713843 17.6637 0.900057 18.4711 1.17521 19.1784C1.46009 19.9094 1.83947 20.5292 2.45787 21.1476C3.07488 21.766 3.69467 22.1467 4.42563 22.4302C5.13436 22.7054 5.94036 22.893 7.12435 22.9472C8.31112 23 8.68911 23.0139 11.7088 23.0139C14.7286 23.0139 15.1052 23 16.2919 22.9472C17.4745 22.8916 18.2847 22.7054 18.9921 22.4302C19.7335 22.151 20.4051 21.7133 20.9598 21.1476C21.5782 20.5292 21.9576 19.9094 22.2425 19.1784C22.5162 18.4711 22.7038 17.6637 22.7594 16.4797C22.8122 15.2943 22.8261 14.9163 22.8261 11.8966C22.8261 8.87685 22.8122 8.49886 22.7594 7.31209C22.7038 6.12949 22.5162 5.32071 22.2425 4.61476C21.963 3.873 21.5253 3.20103 20.9598 2.64561C20.4048 2.07957 19.7327 1.64178 18.9907 1.36295C18.2819 1.0878 17.4732 0.900197 16.2906 0.846001C15.1038 0.793193 14.7272 0.779297 11.7061 0.779297H11.7102H11.7088ZM10.7125 2.78319H11.7102C14.6785 2.78319 15.0301 2.79292 16.2016 2.84711C17.2856 2.89575 17.8748 3.0778 18.2667 3.22927C18.785 3.43077 19.156 3.67257 19.5451 4.06168C19.9342 4.45078 20.1747 4.82043 20.3762 5.34016C20.529 5.73066 20.7097 6.31988 20.7583 7.40381C20.8125 8.5753 20.8236 8.92688 20.8236 11.8938C20.8236 14.8607 20.8125 15.2137 20.7583 16.3852C20.7097 17.4691 20.5276 18.057 20.3762 18.4488C20.1979 18.9315 19.9134 19.368 19.5438 19.7259C19.1546 20.115 18.785 20.3555 18.2653 20.557C17.8762 20.7098 17.2869 20.8905 16.2016 20.9405C15.0301 20.9933 14.6785 21.0058 11.7102 21.0058C8.74192 21.0058 8.38894 20.9933 7.21746 20.9405C6.13352 20.8905 5.54569 20.7098 5.15381 20.557C4.6709 20.379 4.23403 20.095 3.87532 19.7259C3.50533 19.3674 3.22041 18.9306 3.04153 18.4474C2.89005 18.057 2.70801 17.4677 2.65937 16.3838C2.60656 15.2123 2.59544 14.8607 2.59544 11.891C2.59544 8.92271 2.60656 8.57252 2.65937 7.40103C2.7094 6.3171 2.89005 5.72788 3.04291 5.336C3.24442 4.81765 3.48622 4.44661 3.87532 4.05751C4.26443 3.6684 4.63408 3.42799 5.15381 3.22649C5.54569 3.07363 6.13352 2.89297 7.21746 2.84294C8.24303 2.7957 8.64047 2.7818 10.7125 2.78041V2.78319ZM17.6441 4.62866C17.4689 4.62866 17.2954 4.66317 17.1336 4.73021C16.9717 4.79725 16.8246 4.89552 16.7008 5.0194C16.5769 5.14328 16.4786 5.29035 16.4116 5.4522C16.3445 5.61406 16.31 5.78754 16.31 5.96273C16.31 6.13793 16.3445 6.3114 16.4116 6.47326C16.4786 6.63512 16.5769 6.78219 16.7008 6.90607C16.8246 7.02995 16.9717 7.12821 17.1336 7.19526C17.2954 7.2623 17.4689 7.29681 17.6441 7.29681C17.9979 7.29681 18.3372 7.15625 18.5874 6.90607C18.8376 6.65588 18.9782 6.31655 18.9782 5.96273C18.9782 5.60891 18.8376 5.26959 18.5874 5.0194C18.3372 4.76921 17.9979 4.62866 17.6441 4.62866ZM11.7102 6.18786C10.953 6.17604 10.2009 6.31499 9.49786 6.59661C8.79481 6.87824 8.1548 7.29691 7.61511 7.82825C7.07541 8.35959 6.64681 8.99298 6.35426 9.69156C6.0617 10.3901 5.91104 11.1399 5.91104 11.8973C5.91104 12.6546 6.0617 13.4044 6.35426 14.103C6.64681 14.8016 7.07541 15.435 7.61511 15.9663C8.1548 16.4977 8.79481 16.9163 9.49786 17.1979C10.2009 17.4796 10.953 17.6185 11.7102 17.6067C13.209 17.5833 14.6385 16.9715 15.6902 15.9033C16.7418 14.8351 17.3313 13.3963 17.3313 11.8973C17.3313 10.3983 16.7418 8.95942 15.6902 7.89123C14.6385 6.82305 13.209 6.21124 11.7102 6.18786ZM11.7102 8.19036C12.6932 8.19036 13.6359 8.58084 14.3309 9.27589C15.026 9.97094 15.4165 10.9136 15.4165 11.8966C15.4165 12.8795 15.026 13.8222 14.3309 14.5173C13.6359 15.2123 12.6932 15.6028 11.7102 15.6028C10.7273 15.6028 9.78459 15.2123 9.08953 14.5173C8.39448 13.8222 8.004 12.8795 8.004 11.8966C8.004 10.9136 8.39448 9.97094 9.08953 9.27589C9.78459 8.58084 10.7273 8.19036 11.7102 8.19036Z" fill="#F7F7F7"/>
</g>
<defs>
<clipPath id="clip0_479_11106">
<rect width="22.2346" height="22.2346" fill="white" transform="translate(0.591553 0.779297)"/>
</clipPath>
</defs>
</svg>
