<svg width="24" height="24" viewBox="0 0 24 24" fill="none" xmlns="http://www.w3.org/2000/svg">
<path d="M4.99579 9.64648H4.53257C3.65911 9.64648 3.22239 9.64648 2.95103 9.91783C2.67969 10.1892 2.67969 10.6259 2.67969 11.4994V19.3741C2.67969 20.2476 2.67969 20.6843 2.95103 20.9556C3.22239 21.227 3.65911 21.227 4.53257 21.227H4.99579C5.86925 21.227 6.30597 21.227 6.57733 20.9556C6.84867 20.6843 6.84867 20.2476 6.84867 19.3741V11.4994C6.84867 10.6259 6.84867 10.1892 6.57733 9.91783C6.30597 9.64648 5.86925 9.64648 4.99579 9.64648Z" stroke="#F7F7F7" stroke-width="1.38966"/>
<path d="M6.84867 4.78273C6.84867 5.93397 5.91541 6.86723 4.76418 6.86723C3.61295 6.86723 2.67969 5.93397 2.67969 4.78273C2.67969 3.6315 3.61295 2.69824 4.76418 2.69824C5.91541 2.69824 6.84867 3.6315 6.84867 4.78273Z" stroke="#F7F7F7" stroke-width="1.38966"/>
<path d="M12.2509 9.64648H11.4857C10.6122 9.64648 10.1755 9.64648 9.90416 9.91783C9.63281 10.1892 9.63281 10.6259 9.63281 11.4994V19.3741C9.63281 20.2476 9.63281 20.6843 9.90416 20.9556C10.1755 21.227 10.6122 21.227 11.4857 21.227H11.9489C12.8224 21.227 13.2591 21.227 13.5304 20.9556C13.8018 20.6843 13.8018 20.2476 13.8018 19.3741L13.8019 16.1317C13.8019 14.5967 14.291 13.3523 15.7361 13.3523C16.4585 13.3523 17.0443 13.9745 17.0443 14.742V18.911C17.0443 19.7844 17.0443 20.2212 17.3157 20.4925C17.587 20.7639 18.0238 20.7639 18.8972 20.7639H19.3592C20.2325 20.7639 20.6691 20.7639 20.9405 20.4926C21.2118 20.2213 21.2119 19.7847 21.2121 18.9114L21.2134 13.8157C21.2134 11.5133 19.0236 9.64671 16.8561 9.64671C15.6222 9.64671 14.5214 10.2515 13.8019 11.1973C13.8018 10.6136 13.8018 10.3218 13.6751 10.1051C13.5947 9.96783 13.4804 9.85357 13.3432 9.77329C13.1265 9.64648 12.8347 9.64648 12.2509 9.64648Z" stroke="#F7F7F7" stroke-width="1.38966" stroke-linejoin="round"/>
</svg>
