<svg width="30" height="24" viewBox="0 0 30 24" fill="none" xmlns="http://www.w3.org/2000/svg">
<path d="M29.8976 2.86331C28.8276 3.34969 27.6742 3.66931 26.4791 3.82217C27.702 3.08565 28.6469 1.91834 29.0916 0.514779C27.9382 1.20961 26.6597 1.69599 25.3118 1.97392C24.2139 0.778815 22.6714 0.0839844 20.9204 0.0839844C17.6547 0.0839844 14.9866 2.75213 14.9866 6.04563C14.9866 6.51812 15.0422 6.9767 15.1394 7.4075C10.1922 7.15736 5.78702 4.78104 2.85483 1.18182C2.34066 2.0573 2.04883 3.08565 2.04883 4.16959C2.04883 6.24018 3.09108 8.07454 4.70308 9.11678C3.71642 9.11678 2.79925 8.83885 1.99324 8.42195V8.46364C1.99324 11.3541 4.04994 13.7721 6.77368 14.3141C5.8992 14.5534 4.98115 14.5867 4.09163 14.4114C4.46907 15.596 5.20828 16.6326 6.20533 17.3754C7.20238 18.1182 8.40715 18.5299 9.65028 18.5526C7.54304 20.2208 4.93098 21.1225 2.24338 21.1096C1.7709 21.1096 1.29841 21.0818 0.825928 21.0262C3.46628 22.7216 6.60692 23.7082 9.9699 23.7082C20.9204 23.7082 26.9377 14.6198 26.9377 6.74046C26.9377 6.47643 26.9377 6.22629 26.9238 5.96225C28.0911 5.12845 29.0916 4.07231 29.8976 2.86331Z" fill="white"/>
</svg>
